<?xml version="1.0" encoding="UTF-8"?>
<svg xmlns="http://www.w3.org/2000/svg" xmlns:xlink="http://www.w3.org/1999/xlink" width="141px" height="px" viewBox="0 0 141 31" version="1.1">
<g id="surface1">
<path style=" stroke:none;fill-rule:nonzero;fill:rgb(12.941176%,12.941176%,12.941176%);fill-opacity:1;" d="M 55.164062 9.875 C 56.027344 10.398438 56.757812 11.117188 57.226562 12.097656 C 57.757812 13.078125 58.023438 14.257812 58.023438 15.566406 C 58.023438 16.871094 57.757812 17.984375 57.160156 18.964844 C 56.625 19.945312 55.828125 20.664062 54.828125 21.125 C 53.832031 21.648438 52.632812 21.910156 51.371094 21.910156 C 50.636719 21.910156 49.972656 21.777344 49.308594 21.515625 C 48.640625 21.320312 48.042969 20.925781 47.578125 20.46875 L 47.578125 27.269531 L 43.71875 27.269531 L 43.71875 9.351562 L 47.042969 9.351562 L 47.378906 10.789062 C 48.839844 9.613281 50.4375 9.023438 52.101562 9.023438 C 53.234375 9.023438 54.296875 9.285156 55.164062 9.875 Z M 53.035156 17.984375 C 53.699219 17.394531 54.03125 16.609375 54.03125 15.628906 C 54.03125 14.648438 53.699219 13.863281 53.101562 13.210938 C 52.5 12.554688 51.703125 12.292969 50.835938 12.292969 C 50.105469 12.292969 49.441406 12.425781 48.90625 12.753906 C 48.375 13.015625 47.976562 13.472656 47.644531 14.058594 L 47.644531 17.003906 C 47.84375 17.59375 48.242188 18.050781 48.707031 18.375 C 49.242188 18.703125 49.839844 18.898438 50.570312 18.898438 C 51.570312 18.898438 52.367188 18.574219 53.035156 17.984375 Z M 53.035156 17.984375 "/>
<path style=" stroke:none;fill-rule:nonzero;fill:rgb(12.941176%,12.941176%,12.941176%);fill-opacity:1;" d="M 60.285156 12.164062 C 60.886719 11.246094 61.683594 10.460938 62.746094 9.9375 C 63.8125 9.414062 65.011719 9.089844 66.339844 9.089844 C 67.671875 9.089844 68.871094 9.351562 69.933594 9.9375 C 70.933594 10.460938 71.730469 11.246094 72.328125 12.226562 C 72.929688 13.207031 73.195312 14.253906 73.195312 15.496094 C 73.195312 16.742188 72.929688 17.785156 72.328125 18.769531 C 71.730469 19.75 71 20.535156 69.933594 21.058594 C 68.9375 21.578125 67.671875 21.90625 66.339844 21.90625 C 65.011719 21.90625 63.8125 21.644531 62.746094 21.121094 C 61.683594 20.597656 60.886719 19.878906 60.285156 18.898438 C 59.753906 17.917969 59.421875 16.804688 59.421875 15.496094 C 59.421875 14.253906 59.753906 13.144531 60.285156 12.164062 Z M 64.210938 17.851562 C 64.746094 18.507812 65.476562 18.769531 66.339844 18.769531 C 67.207031 18.769531 67.9375 18.441406 68.46875 17.851562 C 69.003906 17.261719 69.269531 16.414062 69.269531 15.496094 C 69.269531 14.515625 69.003906 13.730469 68.46875 13.144531 C 67.871094 12.488281 67.207031 12.164062 66.273438 12.164062 C 65.410156 12.164062 64.746094 12.488281 64.144531 13.078125 C 63.613281 13.730469 63.347656 14.515625 63.347656 15.496094 C 63.347656 16.414062 63.613281 17.199219 64.210938 17.851562 Z M 64.210938 17.851562 "/>
<path style=" stroke:none;fill-rule:nonzero;fill:rgb(12.941176%,12.941176%,12.941176%);fill-opacity:1;" d="M 79.449219 0.0625 L 79.449219 21.582031 L 75.589844 21.582031 L 75.589844 0.0625 Z M 79.449219 0.0625 "/>
<path style=" stroke:none;fill-rule:nonzero;fill:rgb(12.941176%,12.941176%,12.941176%);fill-opacity:1;" d="M 95.285156 9.675781 L 87.433594 27.335938 L 83.707031 27.335938 L 86.636719 20.992188 L 81.046875 9.675781 L 85.4375 9.675781 L 88.632812 16.742188 L 91.828125 9.675781 Z M 95.285156 9.675781 "/>
<path style=" stroke:none;fill-rule:nonzero;fill:rgb(12.941176%,12.941176%,12.941176%);fill-opacity:1;" d="M 110.058594 9.675781 L 110.058594 21.578125 C 110.058594 22.691406 109.726562 23.738281 109.058594 24.652344 C 108.394531 25.570312 107.53125 26.289062 106.398438 26.8125 C 105.265625 27.335938 104.070312 27.597656 102.738281 27.597656 C 101.742188 27.597656 100.875 27.464844 100.144531 27.269531 C 99.410156 27.007812 98.8125 26.746094 98.347656 26.484375 C 97.816406 26.15625 97.28125 25.765625 96.683594 25.242188 L 98.945312 22.625 C 99.476562 23.148438 100.078125 23.542969 100.609375 23.804688 C 101.140625 24.066406 101.875 24.261719 102.671875 24.261719 C 103.671875 24.261719 104.46875 24 105.132812 23.542969 C 105.800781 23.085938 106.132812 22.363281 106.132812 21.515625 L 106.132812 19.8125 C 105.734375 20.402344 105.199219 20.925781 104.402344 21.320312 C 103.605469 21.710938 102.671875 21.90625 101.609375 21.90625 C 100.542969 21.90625 99.476562 21.644531 98.546875 21.058594 C 97.613281 20.535156 96.882812 19.75 96.285156 18.769531 C 95.75 17.785156 95.417969 16.742188 95.417969 15.5625 C 95.417969 14.386719 95.683594 13.273438 96.285156 12.292969 C 96.882812 11.3125 97.613281 10.527344 98.613281 9.9375 C 99.542969 9.351562 100.542969 9.089844 101.609375 9.089844 C 102.605469 9.089844 103.46875 9.21875 104.269531 9.480469 C 105.066406 9.742188 105.667969 10.136719 106.066406 10.59375 L 106.464844 9.675781 Z M 106.132812 17.003906 L 106.132812 14.058594 C 105.867188 13.46875 105.464844 13.011719 104.867188 12.683594 C 104.269531 12.359375 103.605469 12.164062 102.804688 12.164062 C 101.875 12.164062 101.074219 12.488281 100.410156 13.078125 C 99.746094 13.667969 99.410156 14.453125 99.410156 15.433594 C 99.410156 16.347656 99.746094 17.199219 100.410156 17.851562 C 101.074219 18.507812 101.875 18.832031 102.804688 18.832031 C 104.335938 18.769531 105.464844 18.179688 106.132812 17.003906 Z M 106.132812 17.003906 "/>
<path style=" stroke:none;fill-rule:nonzero;fill:rgb(12.941176%,12.941176%,12.941176%);fill-opacity:1;" d="M 113.253906 12.164062 C 113.851562 11.183594 114.652344 10.464844 115.714844 9.875 C 116.78125 9.351562 117.976562 9.023438 119.308594 9.023438 C 120.640625 9.023438 121.835938 9.285156 122.902344 9.875 C 123.898438 10.398438 124.699219 11.183594 125.296875 12.164062 C 125.828125 13.144531 126.160156 14.191406 126.160156 15.433594 C 126.160156 16.675781 125.894531 17.722656 125.296875 18.703125 C 124.765625 19.683594 123.964844 20.46875 122.902344 20.992188 C 121.902344 21.515625 120.640625 21.84375 119.308594 21.84375 C 117.976562 21.84375 116.78125 21.582031 115.714844 21.058594 C 114.652344 20.535156 113.851562 19.816406 113.253906 18.835938 C 112.65625 17.855469 112.386719 16.742188 112.386719 15.367188 C 112.386719 14.257812 112.65625 13.144531 113.253906 12.164062 Z M 117.113281 17.855469 C 117.644531 18.507812 118.375 18.769531 119.242188 18.769531 C 120.105469 18.769531 120.839844 18.441406 121.371094 17.855469 C 121.902344 17.265625 122.167969 16.414062 122.167969 15.5 C 122.167969 14.519531 121.902344 13.734375 121.371094 13.144531 C 120.839844 12.554688 120.105469 12.230469 119.242188 12.230469 C 118.375 12.230469 117.710938 12.554688 117.113281 13.144531 C 116.511719 13.734375 116.246094 14.582031 116.246094 15.5 C 116.3125 16.414062 116.582031 17.199219 117.113281 17.855469 Z M 117.113281 17.855469 "/>
<path style=" stroke:none;fill-rule:nonzero;fill:rgb(12.941176%,12.941176%,12.941176%);fill-opacity:1;" d="M 139.804688 10.070312 C 140.601562 10.722656 140.933594 11.574219 141 12.621094 L 141 21.578125 L 137.074219 21.578125 L 137.074219 14.058594 C 137.007812 12.882812 136.410156 12.292969 135.277344 12.292969 C 134.414062 12.292969 133.679688 12.683594 133.148438 13.535156 C 132.617188 14.386719 132.351562 15.433594 132.351562 16.675781 L 132.351562 21.578125 L 128.492188 21.578125 L 128.492188 9.675781 L 132.019531 9.675781 L 132.285156 11.574219 C 132.75 10.789062 133.347656 10.199219 134.148438 9.742188 C 134.945312 9.285156 135.878906 9.089844 136.941406 9.089844 C 138.074219 9.089844 139.070312 9.414062 139.804688 10.070312 Z M 139.804688 10.070312 "/>
<path style=" stroke:none;fill-rule:nonzero;fill:rgb(50.980392%,27.843137%,89.803922%);fill-opacity:1;" d="M 27.214844 9.480469 C 26.550781 9.089844 25.683594 9.089844 24.953125 9.480469 L 19.761719 12.492188 L 16.234375 14.453125 L 11.046875 17.460938 C 10.378906 17.855469 9.515625 17.855469 8.785156 17.460938 L 4.65625 15.105469 C 3.992188 14.714844 3.527344 13.996094 3.527344 13.210938 L 3.527344 8.566406 C 3.527344 7.78125 3.925781 7.0625 4.65625 6.671875 L 8.71875 4.382812 C 9.382812 3.988281 10.246094 3.988281 10.980469 4.382812 L 15.039062 6.671875 C 15.703125 7.0625 16.167969 7.78125 16.167969 8.566406 L 16.167969 11.574219 L 19.695312 9.546875 L 19.695312 6.539062 C 19.695312 5.753906 19.296875 5.035156 18.566406 4.644531 L 11.046875 0.328125 C 10.378906 -0.0664062 9.515625 -0.0664062 8.785156 0.328125 L 1.132812 4.644531 C 0.398438 5.035156 0 5.753906 0 6.539062 L 0 15.238281 C 0 16.023438 0.398438 16.742188 1.132812 17.132812 L 8.785156 21.449219 C 9.449219 21.84375 10.3125 21.84375 11.046875 21.449219 L 16.234375 18.507812 L 19.761719 16.480469 L 24.953125 13.539062 C 25.617188 13.144531 26.484375 13.144531 27.214844 13.539062 L 31.273438 15.828125 C 31.941406 16.21875 32.40625 16.9375 32.40625 17.722656 L 32.40625 22.367188 C 32.40625 23.152344 32.007812 23.871094 31.273438 24.261719 L 27.214844 26.617188 C 26.550781 27.011719 25.683594 27.011719 24.953125 26.617188 L 20.894531 24.328125 C 20.226562 23.9375 19.761719 23.214844 19.761719 22.433594 L 19.761719 19.421875 L 16.234375 21.449219 L 16.234375 24.460938 C 16.234375 25.242188 16.636719 25.964844 17.367188 26.355469 L 25.019531 30.671875 C 25.683594 31.066406 26.550781 31.066406 27.28125 30.671875 L 34.933594 26.355469 C 35.597656 25.964844 36.066406 25.242188 36.066406 24.460938 L 36.066406 15.761719 C 36.066406 14.976562 35.664062 14.257812 34.933594 13.863281 Z M 27.214844 9.480469 "/>
</g>
</svg>
